<?xml version="1.0" encoding="UTF-8" standalone="no"?>
<!-- Uploaded to: SVG Find, www.svgfind.com, Generator: SVG Find Mixer Tools -->

<svg
   fill="#000000"
   width="24"
   height="24"
   version="1.1"
   viewBox="144 144 15.36 15.36"
   id="svg3"
   sodipodi:docname="lliurex-auto-upgrade.svg"
   inkscape:version="1.3 (1:1.3+202307231459+0e150ed6c4)"
   xmlns:inkscape="http://www.inkscape.org/namespaces/inkscape"
   xmlns:sodipodi="http://sodipodi.sourceforge.net/DTD/sodipodi-0.dtd"
   xmlns="http://www.w3.org/2000/svg"
   xmlns:svg="http://www.w3.org/2000/svg">
  <defs
     id="defs3" />
  <sodipodi:namedview
     id="namedview3"
     pagecolor="#ffffff"
     bordercolor="#000000"
     borderopacity="0.25"
     inkscape:showpageshadow="2"
     inkscape:pageopacity="0.0"
     inkscape:pagecheckerboard="0"
     inkscape:deskcolor="#d1d1d1"
     inkscape:zoom="13.92"
     inkscape:cx="28.412356"
     inkscape:cy="10.632184"
     inkscape:window-width="1920"
     inkscape:window-height="882"
     inkscape:window-x="0"
     inkscape:window-y="0"
     inkscape:window-maximized="1"
     inkscape:current-layer="g3" />
  <g
     id="g3"
     transform="matrix(0.03159546,0,0,0.03159546,139.04175,139.04192)">
    <path
       d="m 496.88,545.48 -98.465,-17.973 c -2.9062,-0.51172 -5.8242,0.50391 -7.7422,2.7695 -1.9258,2.2656 -2.4805,5.2891 -1.4805,8.0977 l 9.0547,25.309 c -42.609,-0.44531 -82.684,-17.145 -113.2,-47.277 -31.422,-31.043 -48.73,-72.371 -48.73,-116.38 0,-28.688 7.543,-56.863 21.805,-81.469 5.0977,-8.8008 2.6367,-19.938 -6.0586,-26.145 -4.4688,-3.1875 -10.121,-4.3477 -15.469,-3.207 -5.2969,1.1328 -9.707,4.3047 -12.41,8.9297 -27.613,47.203 -34.695,103.32 -19.938,158.03 24.559,91.035 111.76,152.56 208.02,146.81 l 10.543,29.562 c 1,2.8008 3.3398,4.793 6.2695,5.3359 0.50391,0.0898 1.0156,0.13281 1.5195,0.13281 2.3789,0 4.6367,-1.0312 6.2227,-2.9062 l 64.82,-76.281 c 1.9102,-2.2539 2.4609,-5.2617 1.4688,-8.0469 -0.99609,-2.7852 -3.3242,-4.7656 -6.2344,-5.2969"
       id="path1"
       style="fill:#3199dc;fill-opacity:1" />
    <path
       d="m 399.99,196.74 c -4.4961,0 -8.5,0.10547 -12.164,0.32031 l -10.578,-29.645 c -0.99219,-2.7852 -3.3203,-4.7695 -6.2227,-5.2969 -2.8984,-0.51172 -5.7773,0.49609 -7.6992,2.7422 l -64.969,76.262 c -1.918,2.2539 -2.4727,5.2617 -1.4805,8.0469 0.99219,2.7852 3.3203,4.7656 6.2227,5.2969 l 98.547,18.078 c 2.8906,0.53906 5.7852,-0.48828 7.6992,-2.75 1.918,-2.2539 2.4688,-5.2617 1.4688,-8.0391 l -9.0703,-25.383 c 42.617,0.4375 82.684,17.145 113.2,47.277 31.422,31.035 48.73,72.371 48.73,116.37 0,28.637 -7.4531,56.707 -21.539,81.195 -5.082,8.832 -2.6836,20.301 5.4688,26.109 3.4023,2.4297 7.3438,3.6836 11.387,3.6836 1.4219,0 2.8594,-0.14844 4.2969,-0.46875 5.543,-1.207 10.352,-4.75 13.195,-9.707 17.535,-30.555 26.805,-65.414 26.805,-100.81 -0.008,-112.08 -91.203,-203.28 -203.29,-203.28"
       id="path2"
       style="fill:#3199dc;fill-opacity:1" />
    <path
       d="m 509.52117,378.06067 -25.00897,-4.7314 c -1.07954,-0.19878 -1.96033,-0.95486 -2.30724,-1.95256 -1.11465,-3.19971 -2.42417,-6.34104 -3.87396,-9.33033 -0.4521,-0.92367 -0.35466,-2.03834 0.24552,-2.91914 l 14.36924,-21.06895 c 2.31502,-3.38678 1.8863,-7.93111 -1.01329,-10.83031 l -19.17528,-19.18326 c -2.90357,-2.8918 -7.46737,-3.32053 -10.8303,-1.0055 l -21.06896,14.36225 c -0.8808,0.60799 -2.00324,0.69372 -2.92692,0.24943 -3.01652,-1.46934 -6.15786,-2.77099 -9.33033,-3.87397 -1.00551,-0.34686 -1.7538,-1.22769 -1.95254,-2.30723 l -4.72364,-25.01297 c -0.76778,-4.02203 -4.28712,-6.93339 -8.38318,-6.93339 h -27.12215 c -4.09617,0 -7.61544,2.91914 -8.3754,6.93339 l -4.72363,25.02095 c -0.20656,1.07175 -0.94706,1.95254 -1.95255,2.29945 -3.1569,1.0952 -6.29036,2.39684 -9.32255,3.86619 -0.92367,0.45989 -2.05392,0.35466 -2.92692,-0.23774 l -21.05698,-14.36224 c -3.37122,-2.30726 -7.93112,-1.88631 -10.83031,1.00549 l -19.18326,19.18326 c -2.89181,2.8918 -3.32053,7.44393 -1.01329,10.8303 l 14.38121,21.06498 c 0.6002,0.88079 0.68594,1.99544 0.23774,2.91914 -1.4498,3.00095 -2.75542,6.1344 -3.86618,9.33032 -0.34687,0.99772 -1.23548,1.7538 -2.30725,1.95254 l -25.00897,4.73143 c -4.02203,0.75998 -6.94117,4.27934 -6.94117,8.36762 v 27.12912 c 0,4.08839 2.91136,7.61544 6.93339,8.38319 l 25.01297,4.72364 c 1.07175,0.19876 1.96033,0.95484 2.30723,1.94476 1.10687,3.19193 2.41639,6.33716 3.86619,9.33032 0.45208,0.92368 0.36245,2.04614 -0.23774,2.92693 l -14.37722,21.06896 c -2.30723,3.38678 -1.87851,7.93889 1.0133,10.83031 l 19.18325,19.17526 c 2.88403,2.89181 7.43614,3.32443 10.83031,1.0133 l 21.06896,-14.36225 c 0.88079,-0.6002 2.00323,-0.68594 2.92692,-0.24944 3.03219,1.46935 6.16563,2.77099 9.32254,3.86619 1.00551,0.35466 1.74602,1.23548 1.95254,2.30724 l 4.72364,25.01296 c 0.75999,4.02203 4.27934,6.94117 8.3754,6.94117 h 27.12215 c 4.09617,0 7.61544,-2.91914 8.38319,-6.94117 l 4.72363,-25.01296 c 0.19876,-1.07176 0.94706,-1.95255 1.95254,-2.30724 3.15691,-1.0952 6.29814,-2.39294 9.32255,-3.86619 0.93147,-0.4443 2.05392,-0.34687 2.9347,0.24554 l 21.06896,14.37721 c 3.38678,2.30724 7.9389,1.87851 10.8303,-1.02106 l 19.17528,-19.17529 c 2.89959,-2.89958 3.32442,-7.4518 1.0133,-10.8303 l -14.36923,-21.06896 c -0.60021,-0.8808 -0.68594,-2.00323 -0.24554,-2.92693 1.44979,-2.98539 2.75542,-6.11884 3.87396,-9.32254 v -0.008 c 0.34687,-0.99772 1.2277,-1.74602 2.30724,-1.94477 l 25.00897,-4.7314 c 4.02203,-0.75999 6.94118,-4.28713 6.94118,-8.37541 v -27.12913 c -0.0117,-4.09227 -2.93082,-7.61155 -6.95295,-8.37152 m -109.53024,69.91478 c -26.45567,0 -47.97661,-21.52492 -47.97661,-47.98059 0,-26.44769 21.51694,-47.9766 47.97661,-47.9766 26.45567,0 47.98059,21.52492 47.98059,47.9766 0,26.45169 -21.52492,47.98059 -47.98059,47.98059"
       id="path3"
       style="fill:#000000;fill-opacity:1;stroke-width:0.997722" />
    <ellipse
       style="opacity:0.3;fill:#27ae60;stroke-width:8.34485;stroke-linecap:round;stroke-linejoin:round;stroke-miterlimit:5.3;paint-order:fill markers stroke"
       id="path4"
       cx="975.79706"
       cy="307.86349"
       rx="5.0944543"
       ry="0.73156345" />
  </g>
</svg>
