<?xml version="1.0" encoding="UTF-8" standalone="no"?>
<svg
   height="24"
   width="24"
   viewBox="0 0 24 24"
   version="1.1"
   id="svg2"
   sodipodi:docname="lliurex-auto-upgrade.svg"
   inkscape:version="1.3 (1:1.3+202307231459+0e150ed6c4)"
   xmlns:inkscape="http://www.inkscape.org/namespaces/inkscape"
   xmlns:sodipodi="http://sodipodi.sourceforge.net/DTD/sodipodi-0.dtd"
   xmlns="http://www.w3.org/2000/svg"
   xmlns:svg="http://www.w3.org/2000/svg">
  <sodipodi:namedview
     id="namedview2"
     pagecolor="#ffffff"
     bordercolor="#000000"
     borderopacity="0.25"
     inkscape:showpageshadow="2"
     inkscape:pageopacity="0.0"
     inkscape:pagecheckerboard="0"
     inkscape:deskcolor="#d1d1d1"
     inkscape:zoom="14.104167"
     inkscape:cx="20.171344"
     inkscape:cy="2.268833"
     inkscape:window-width="1920"
     inkscape:window-height="882"
     inkscape:window-x="0"
     inkscape:window-y="0"
     inkscape:window-maximized="1"
     inkscape:current-layer="svg2" />
  <defs
     id="defs1">
    <style
       type="text/css"
       id="current-color-scheme">&#10;            .ColorScheme-Text {&#10;                color:#232629;&#10;            }&#10;            .ColorScheme-PositiveText {&#10;                color:#27ae60;&#10;            }&#10;        </style>
    <linearGradient
       id="linearGradient4058-1-8-2-8">
      <stop
         style="stop-color:#75a125;stop-opacity:1;"
         offset="0"
         id="stop4060-41-2-1-2" />
      <stop
         style="stop-color:#353520;stop-opacity:1"
         offset="1"
         id="stop4062-0-13-7-5" />
    </linearGradient>
    <linearGradient
       id="linearGradient5276-4-6">
      <stop
         id="stop5278-1-9"
         offset="0"
         style="stop-color:#ffffff;stop-opacity:0.54929578;" />
      <stop
         id="stop5280-65-6"
         offset="1"
         style="stop-color:#ffffff;stop-opacity:0;" />
    </linearGradient>
  </defs>
  <circle
     style="fill:#000000;stroke-width:0.411968;stroke-linecap:round;stroke-linejoin:round;stroke-miterlimit:5.3;paint-order:fill markers stroke"
     id="path2"
     cx="12"
     cy="12"
     r="8" />
  <path
     style="fill:#3199dc;stroke-width:0.419705;fill-opacity:1"
     d="M 10.627518,23.680147 C 10.102223,23.538704 9.7450584,23.05927 9.7450584,22.495589 c 0,-0.404278 -0.081318,-0.499568 -0.5395395,-0.632226 C 8.5530031,21.674455 7.8519274,21.392072 7.2403039,21.071801 6.9158868,20.901923 6.6033251,20.762932 6.5457223,20.762932 c -0.057603,0 -0.2334254,0.116545 -0.3907171,0.258989 C 5.7329605,21.404127 5.2765675,21.493134 4.8141975,21.283408 4.5377779,21.158027 2.9896669,19.65349 2.7897567,19.315948 2.504402,18.834135 2.5726171,18.318803 2.9839757,17.84872 c 0.1406076,-0.16068 0.2556505,-0.334378 0.2556505,-0.385994 0,-0.05162 -0.1606485,-0.410271 -0.3569963,-0.79701 C 2.5327522,15.976574 2.3668612,15.560271 2.1362109,14.792578 1.9990857,14.336172 1.9269316,14.278854 1.4448514,14.243368 0.84755622,14.199402 0.43010442,13.858532 0.30566132,13.313164 c -0.080357,-0.352162 -0.07141,-2.332709 0.011991,-2.654224 0.1421189,-0.547882 0.6179518,-0.9132711 1.18931838,-0.9132711 0.4000245,0 0.4920721,-0.07848 0.6298194,-0.53698 0.2300157,-0.765624 0.3961968,-1.182553 0.7458411,-1.871235 0.1963477,-0.38674 0.3569962,-0.746518 0.3569962,-0.799508 0,-0.05299 -0.116545,-0.225038 -0.2589888,-0.38233 -0.3952893,-0.436492 -0.4764993,-0.898455 -0.2410149,-1.371011 0.1766229,-0.354436 1.7446653,-1.915203 2.0743824,-2.064757 0.4625686,-0.209814 0.9188923,-0.120863 1.3410004,0.2614 0.1572917,0.142444 0.3331142,0.258989 0.390717,0.258989 0.057603,0 0.3701646,-0.138801 0.6945816,-0.308445 0.623693,-0.326145 1.3385728,-0.614827 1.9652138,-0.793589 0.4567862,-0.130309 0.5390946,-0.225878 0.5406895,-0.627808 0.0021,-0.488348 0.2989896,-0.95467699 0.7317476,-1.14875299 0.2376,-0.106554 2.365912,-0.153436 2.795179,-0.06157 0.580385,0.124204 0.924363,0.530539 0.969624,1.14539099 0.03547,0.48208 0.0928,0.554235 0.549209,0.69136 0.767692,0.23065 1.183997,0.396541 1.873136,0.746419 0.386742,0.196348 0.746518,0.356996 0.79951,0.356996 0.05299,0 0.225037,-0.116545 0.38233,-0.258989 0.422043,-0.382206 0.878435,-0.471212 1.340807,-0.261486 0.276418,0.125381 1.824531,1.629918 2.02444,1.96746 0.285354,0.481812 0.217139,0.997145 -0.194218,1.467227 -0.14061,0.160681 -0.255651,0.334378 -0.255651,0.385995 0,0.05162 0.160646,0.41027 0.356997,0.79701 0.349644,0.688682 0.515826,1.105611 0.745842,1.871235 0.137747,0.458501 0.229792,0.53698 0.629818,0.53698 0.587218,0 1.08166,0.3907691 1.201503,0.9495761 0.07042,0.328348 0.07172,2.303627 0.0017,2.607111 -0.12759,0.553143 -0.544697,0.897112 -1.141094,0.941012 -0.482082,0.03549 -0.554238,0.0928 -0.691364,0.54921 -0.230649,0.767693 -0.396538,1.183996 -0.746416,1.873138 -0.196347,0.386739 -0.356998,0.746518 -0.356998,0.799508 0,0.05299 0.113703,0.221899 0.252671,0.375353 0.412214,0.455179 0.483874,0.991329 0.197199,1.475371 -0.158973,0.268385 -1.728381,1.823829 -1.957305,1.939869 -0.465042,0.235725 -0.962111,0.151902 -1.406798,-0.237235 -0.160688,-0.140608 -0.334387,-0.255651 -0.386003,-0.255651 -0.05162,0 -0.41027,0.160649 -0.797012,0.356997 -0.689139,0.349878 -1.105444,0.515768 -1.873136,0.746419 -0.456408,0.137125 -0.513723,0.209279 -0.549209,0.69136 -0.04397,0.597294 -0.384836,1.014746 -0.930206,1.139189 -0.34114,0.07784 -2.380996,0.06512 -2.685035,-0.01675 z m 2.501414,-4.621363 c 3.115913,-0.510566 5.514642,-2.968868 5.958904,-6.106896 0.03832,-0.270564 0.05068,-0.714973 0.03211,-1.154189 -0.148836,-3.5243731 -2.400857,-6.1521731 -5.833639,-6.8070591 -0.641419,-0.122366 -1.929276,-0.122366 -2.570695,0 -2.6553787,0.506578 -4.625401,2.187788 -5.4489375,4.650103 -0.2783078,0.8321211 -0.3695013,1.4235991 -0.3720809,2.4133051 -0.0018,0.696946 0.020616,1.025525 0.093117,1.364042 0.3047589,1.422929 0.9407228,2.590576 1.9734454,3.623298 1.0856806,1.08568 2.3945735,1.765393 3.885614,2.017817 0.548509,0.09286 1.714186,0.09264 2.282148,-4.2e-4 z M 11.030406,18.171807 C 8.4117303,17.738566 6.5423789,16.026129 5.9426952,13.511157 5.5722725,11.957666 5.7127345,10.602811 6.3847452,9.2472689 c 0.3557615,-0.717622 0.6807569,-1.169599 1.2240217,-1.70227 0.5512325,-0.540479 0.9297647,-0.808473 1.6378915,-1.159588 1.7556186,-0.870502 3.7530126,-0.870502 5.5086316,0 0.708127,0.351115 1.086659,0.619109 1.637887,1.159588 0.544555,0.533935 0.869051,0.985794 1.222451,1.70227 0.667667,1.3536141 0.811441,2.7332231 0.444363,4.2638881 -0.28997,1.20913 -0.837677,2.186435 -1.685843,3.008127 -0.836158,0.810061 -1.855828,1.337 -3.087826,1.595704 -0.555753,0.116701 -1.717153,0.145953 -2.255916,0.05682 z m 2.098526,-2.289167 c 1.436626,-0.446671 2.451599,-1.504401 2.811505,-2.929947 0.08974,-0.355429 0.107357,-0.557454 0.09242,-1.059539 l -0.01847,-0.620374 0.229575,0.128318 c 0.126268,0.07057 0.298502,0.128318 0.382746,0.128318 0.351868,0 0.549188,-0.484798 0.292669,-0.719074 -0.212955,-0.194489 -1.460432,-0.8654321 -1.657064,-0.8912351 -0.160961,-0.02112 -0.215112,-10e-4 -0.332591,0.1236351 -0.233205,0.247391 -0.899089,1.524417 -0.893704,1.713942 0.0087,0.30645 0.415391,0.51391 0.658686,0.33601 0.04985,-0.03646 0.169032,-0.204588 0.264842,-0.373631 l 0.174199,-0.307352 0.03509,0.310208 c 0.103176,0.911932 -0.312697,1.964522 -1.034104,2.617357 -0.790405,0.715273 -1.941472,0.986867 -2.974245,0.701772 -0.215834,-0.05958 -0.41485,-0.130405 -0.442261,-0.157389 -0.08739,-0.08603 -0.377218,-0.05278 -0.520178,0.05967 -0.2029864,0.159669 -0.194743,0.463946 0.01742,0.642458 0.162867,0.137044 0.631233,0.310483 1.077245,0.398911 0.426668,0.08459 1.412031,0.02982 1.836211,-0.102059 z M 9.0636921,14.047298 c 0.1495829,-0.08005 0.8912189,-1.522451 0.8912189,-1.733319 0,-0.399821 -0.488155,-0.574284 -0.7467984,-0.266901 -0.069617,0.08273 -0.1578679,0.225974 -0.1961198,0.318319 -0.1013547,0.244692 -0.1570454,0.109882 -0.1580065,-0.382471 -0.00168,-0.836416 0.305621,-1.54902 0.942465,-2.1858651 0.9250977,-0.925096 2.1987307,-1.211283 3.3467257,-0.752012 0.45444,0.181804 0.623401,0.181411 0.781004,-0.0018 0.140257,-0.163056 0.158364,-0.377716 0.04546,-0.53891 -0.09847,-0.140584 -0.626385,-0.352754 -1.143461,-0.459559 -0.981968,-0.202831 -2.018976,-0.024 -2.9102537,0.501878 C 9.4924395,8.7965249 8.8057975,9.4913229 8.5495086,9.9293039 8.137656,10.633139 7.9182593,11.563848 7.9879975,12.311313 l 0.036221,0.388408 -0.2375406,-0.139208 c -0.3147349,-0.18445 -0.568861,-0.184798 -0.7134511,-9.71e-4 -0.1328653,0.168911 -0.139782,0.389333 -0.016923,0.539326 0.1383903,0.168956 1.5907422,0.990695 1.7609663,0.996352 0.081247,0.0027 0.1921285,-0.01886 0.2464048,-0.0479 z"
     id="path1" />
</svg>
